<?xml version="1.0" encoding="utf-8"?>
<!-- Generator: Adobe Illustrator 24.2.3, SVG Export Plug-In . SVG Version: 6.00 Build 0)  -->
<svg version="1.1" id="Layer_1" xmlns="http://www.w3.org/2000/svg" xmlns:xlink="http://www.w3.org/1999/xlink" x="0px" y="0px"
	 viewBox="0 0 2500 2500" style="enable-background:new 0 0 2500 2500;" xml:space="preserve">
<style type="text/css">
	.st0{fill:url(#SVGID_1_);}
</style>
<linearGradient id="SVGID_1_" gradientUnits="userSpaceOnUse" x1="-191.11" y1="509.4257" x2="120.971" y2="197.3447" gradientTransform="matrix(5.0206 0 0 -5.0206 1438.0132 3024.1978)">
	<stop  offset="0" style="stop-color:#2489BE"/>
	<stop  offset="1" style="stop-color:#0575B3"/>
</linearGradient>
<path class="st0" d="M1261.9,161.1C639.7,161.1,135.3,648.6,135.3,1250s504.4,1088.9,1126.6,1088.9S2388.6,1851.4,2388.6,1250
	C2388.6,648.6,1884.2,161.1,1261.9,161.1z M997.5,1776.4H756.4V1004h241.1V1776.4z M875.8,902.9c-78.7,0-142.6-63.8-142.6-142.5
	c0-78.7,63.8-142.5,142.6-142.5s142.6,63.8,142.6,142.5C1018.3,839.1,954.5,902.9,875.8,902.9z M1901,1776.4h-239.9V1371
	c0-111.2-42.6-173.3-131.3-173.3c-96.5,0-146.9,64.6-146.9,173.3v405.4h-231.2V1004h231.2v104c0,0,69.6-127.6,234.7-127.6
	c165.2,0,283.4,100,283.4,306.9L1901,1776.4L1901,1776.4z"/>
</svg>
